<svg width="25" height="33" viewBox="0 0 25 33" fill="none" xmlns="http://www.w3.org/2000/svg">
<path d="M13.8755 13.8082C13.4409 13.5742 12.9059 13.4404 12.3041 13.4404C11.8694 13.4404 11.4682 13.5073 11.1004 13.641C10.7327 13.7748 10.4318 13.9754 10.1977 14.2429C9.96367 14.5103 9.76306 14.8447 9.62932 15.2125C9.49558 15.6137 9.42871 16.0149 9.42871 16.483C9.42871 16.9176 9.49558 17.3523 9.62932 17.7201C9.76306 18.0878 9.93023 18.4222 10.1977 18.6897C10.4318 18.9571 10.7327 19.1578 11.1004 19.3249C11.4682 19.4587 11.8694 19.559 12.3375 19.559C12.8056 19.559 13.2068 19.4921 13.5746 19.3584C13.9424 19.2246 14.2433 18.9906 14.4773 18.7231C14.7114 18.4556 14.912 18.1213 15.0457 17.7535C15.1795 17.3857 15.2463 16.9845 15.2463 16.5164C15.2463 15.9146 15.146 15.3796 14.912 14.9116C14.6445 14.41 14.3102 14.0423 13.8755 13.8082ZM13.7752 17.6532C13.608 17.9875 13.4074 18.2216 13.1734 18.3553C12.9059 18.5225 12.6384 18.5894 12.3375 18.5894C12.1035 18.5894 11.8694 18.5559 11.6688 18.4556C11.4682 18.3553 11.3011 18.2216 11.1339 18.0544C10.9667 17.8872 10.8664 17.6532 10.7661 17.3857C10.6992 17.1182 10.6324 16.8173 10.6324 16.483C10.6324 16.1486 10.6658 15.8477 10.7661 15.5802C10.8664 15.3128 10.9667 15.0787 11.1004 14.9116C11.2342 14.7444 11.4348 14.6106 11.6354 14.5103C11.836 14.41 12.07 14.3766 12.3041 14.3766C12.6384 14.3766 12.9393 14.4435 13.2068 14.6106C13.4743 14.7778 13.6749 15.0119 13.8087 15.3128C13.9424 15.6137 14.0093 16.0149 14.0093 16.4495C14.0093 16.9176 13.909 17.3188 13.7752 17.6532Z" fill="#55C8FF"/>
<path d="M24.8419 6.58663L24.8085 6.55319V6.51976L18.4559 0.167173L18.4225 0.133739C18.4225 0.133739 18.3891 0.133739 18.3891 0.100304C18.3891 0.100304 18.3556 0.100304 18.3556 0.0668693C18.2553 0 18.155 0 18.0213 0H2.27356C1.6383 0 1.06991 0.267477 0.668693 0.668693C0.267477 1.06991 0 1.67173 0 2.27356V30.7264C0 31.3283 0.234042 31.8967 0.635258 32.2979L0.668693 32.3313C1.06991 32.7325 1.67173 33 2.27356 33H22.6353C23.2705 33 23.8389 32.7325 24.2401 32.3313C24.6413 31.9301 24.9088 31.3283 24.9088 30.7264V6.92097C24.9088 6.78723 24.8754 6.68693 24.8419 6.58663ZM18.6565 2.40729L22.4347 6.18541H19.6596C19.3921 6.18541 19.1246 6.08511 18.9574 5.8845C18.7903 5.71733 18.6565 5.44985 18.6565 5.18237V2.40729ZM23.4711 30.7264C23.4711 30.9605 23.3708 31.1611 23.2036 31.3283C23.0365 31.4954 22.8359 31.5957 22.6018 31.5957H2.27356C2.03951 31.5957 1.83891 31.4954 1.67173 31.3283L1.6383 31.2948C1.50456 31.1277 1.40425 30.9271 1.40425 30.7264V2.24012C1.40425 2.00608 1.50456 1.80547 1.67173 1.6383C1.83891 1.47112 2.03951 1.37082 2.27356 1.37082H17.2523V5.14894C17.2523 5.81763 17.5198 6.41945 17.9878 6.88754C18.4225 7.32219 19.0578 7.58967 19.7264 7.58967H23.4711V30.7264Z" fill="#55C8FF"/>
<path d="M17.6866 13.641C17.3523 13.7748 17.0514 13.9754 16.7839 14.2429C16.5164 14.5103 16.3158 14.8447 16.1821 15.2125C16.0483 15.5802 15.9814 16.0149 15.9814 16.483C15.9814 16.7839 16.0149 17.0514 16.0483 17.3188C16.1152 17.5863 16.1821 17.8204 16.2824 18.0544C16.3827 18.2885 16.5164 18.4891 16.6836 18.6897C16.8507 18.8903 17.0514 19.0575 17.252 19.1912C17.4526 19.3249 17.6866 19.3918 17.9541 19.4587C18.2216 19.5255 18.489 19.559 18.79 19.559C19.1912 19.559 19.559 19.4921 19.8599 19.3584C20.1608 19.2246 20.4283 19.0575 20.6289 18.8568C20.8295 18.6562 20.9632 18.4222 21.0635 18.2216C21.1638 17.9875 21.1973 17.7869 21.1973 17.6198C21.1973 17.486 21.1304 17.3523 21.0301 17.252C20.9298 17.1517 20.796 17.1182 20.6623 17.1182C20.4951 17.1182 20.3614 17.1517 20.2945 17.252C20.2276 17.3523 20.1608 17.486 20.0939 17.6198C19.9602 17.9541 19.793 18.1882 19.559 18.3553C19.3249 18.5225 19.024 18.6228 18.6897 18.6228C18.3887 18.6228 18.0878 18.5559 17.8538 18.3888C17.6197 18.2216 17.4191 18.021 17.3188 17.7201C17.1851 17.4192 17.1182 17.0514 17.1182 16.5833C17.1182 15.9146 17.252 15.3796 17.5529 15.0119C17.8538 14.6441 18.2216 14.4435 18.7231 14.4435C19.024 14.4435 19.2915 14.5103 19.4921 14.6441C19.6927 14.7778 19.8933 15.0119 20.027 15.3128C20.1273 15.4799 20.1942 15.6137 20.2945 15.6806C20.3614 15.7474 20.4951 15.7809 20.6289 15.7809C20.7626 15.7809 20.8963 15.714 20.9632 15.6137C21.0635 15.5134 21.0969 15.3796 21.0969 15.2459C21.0969 15.0119 20.9966 14.7444 20.796 14.4435C20.5954 14.176 20.3279 13.9419 19.9267 13.7413C19.559 13.5407 19.1243 13.4404 18.6562 13.4404C18.4222 13.4404 18.0544 13.5073 17.6866 13.641Z" fill="#55C8FF"/>
<path d="M7.7565 14.076C7.52246 13.8754 7.25499 13.7416 6.95407 13.6413C6.65316 13.5745 6.31881 13.541 5.9176 13.541H4.37961C4.11213 13.541 3.94495 13.6079 3.81122 13.7082C3.71091 13.8085 3.64404 14.0091 3.64404 14.2766V18.5896C3.64404 18.7903 3.64404 18.924 3.71091 19.0577C3.74435 19.1915 3.81122 19.2583 3.91152 19.3252C4.01182 19.3921 4.179 19.4255 4.41304 19.4255H5.95103C6.21851 19.4255 6.45255 19.3921 6.6866 19.3586C6.8872 19.3252 7.08781 19.2583 7.28842 19.1915C7.48903 19.0912 7.6562 18.9909 7.78994 18.8571C7.99055 18.6565 8.15772 18.4559 8.29146 18.2219C8.4252 17.9878 8.5255 17.7203 8.59237 17.4194C8.65924 17.1185 8.69267 16.8176 8.69267 16.4498C8.65924 15.4134 8.35833 14.6109 7.7565 14.076ZM6.85377 18.1884C6.75346 18.2553 6.65316 18.3222 6.55286 18.3556C6.41912 18.389 6.31882 18.4225 6.21851 18.4225C6.11821 18.4225 5.95103 18.4225 5.75043 18.4225H4.84769V14.4772H5.65012C6.0179 14.4772 6.31881 14.5106 6.58629 14.6109C6.85377 14.6778 7.05438 14.8784 7.22155 15.1793C7.38872 15.4802 7.48903 15.9149 7.48903 16.4833C7.45559 17.2857 7.25498 17.8541 6.85377 18.1884Z" fill="#55C8FF"/>
</svg>
