<svg width="142" height="91" viewBox="0 0 142 91" fill="none" xmlns="http://www.w3.org/2000/svg">
<g clip-path="url(#clip0)">
<path fill-rule="evenodd" clip-rule="evenodd" d="M36.8815 16.7122L36.9221 86.6398H43.0907L43.0501 11.9658C37.2061 8.85612 27.385 3.57779 22.5557 1L22.718 24.3638L36.8815 16.7122ZM46.8243 86.6808L55.3467 86.3534L55.4279 36.4344L46.8243 31.8107V86.6808Z" fill="#0C2070"/>
<path fill-rule="evenodd" clip-rule="evenodd" d="M0.113825 86.681L8.59568 86.3946L8.43334 49.2008L0.0732422 53.6199L0.113825 86.681ZM12.2887 86.6401L32.8237 86.5174L32.6614 23.4639L12.2887 35.0844V86.6401ZM30.267 76.3699V80.8708L27.5479 82.4666V77.9657L30.267 76.3699ZM30.267 69.8641V74.3649L27.5479 75.9607V71.4598L30.267 69.8641ZM25.3159 66.0587V70.5596L22.5968 72.1554V67.6545L25.3159 66.0587ZM25.3159 59.7575V64.2584L22.5968 65.8542V61.3533L25.3159 59.7575ZM30.267 63.44V67.9409L27.5479 69.5367V65.0358L30.267 63.44ZM30.267 56.9342V61.4351L27.5479 63.0309V58.53L30.267 56.9342ZM25.3159 53.3744V57.8753L22.5968 59.4711V54.9702L25.3159 53.3744ZM30.267 50.5511V55.052L27.5479 56.6478V52.1469L30.267 50.5511ZM25.3159 47.0731V51.574L22.5968 53.1698V48.6689L25.3159 47.0731ZM30.267 44.2089V48.7098L27.5479 50.3056V45.8047L30.267 44.2089ZM25.3159 40.6082V45.1091L22.5968 46.7049V42.204L25.3159 40.6082ZM30.267 37.744V42.2449L27.5479 43.8407V39.3398L30.267 37.744ZM25.3159 34.1842V38.6851L22.5968 40.2809V35.78L25.3159 34.1842ZM30.267 31.32V35.8209L27.5074 37.4167V32.9158L30.267 31.32Z" fill="#4FAFBE"/>
<path fill-rule="evenodd" clip-rule="evenodd" d="M71.629 33.2014H70.939C70.6144 33.2014 70.3303 33.1605 70.0056 33.0787C69.7215 32.9969 69.3969 32.8741 69.1534 32.7104C68.5852 32.3831 68.1388 31.9739 67.8141 31.4011C67.6518 31.1147 67.5301 30.8282 67.4489 30.5418C67.3677 30.2554 67.3271 29.9281 67.3271 29.6007C67.3271 29.2734 67.3677 28.946 67.4489 28.6596C67.5301 28.3732 67.6518 28.0459 67.8141 27.8004C67.9765 27.5139 68.1794 27.2684 68.3823 27.0638C68.5852 26.8593 68.8693 26.6547 69.1534 26.491C69.4375 26.3273 69.7216 26.2046 70.0462 26.1227C70.3303 26.0409 70.655 26 70.9796 26H71.6695C71.9942 26 72.3189 26.0409 72.6029 26.1227C72.887 26.2046 73.2117 26.3273 73.4958 26.491C73.7799 26.6547 74.0233 26.8593 74.2668 27.0638C74.4698 27.2684 74.6727 27.5139 74.835 27.8004C74.9973 28.0868 75.1191 28.3732 75.2003 28.6596C75.2814 28.946 75.322 29.2734 75.322 29.6007C75.322 29.8462 75.2814 30.0917 75.2408 30.2963C75.2003 30.5418 75.1191 30.7464 75.0379 30.951C74.9568 31.1556 74.835 31.3602 74.7133 31.5647C74.5915 31.7693 74.4292 31.933 74.2668 32.0967C74.1045 32.2603 73.9016 32.424 73.6987 32.5468C73.4958 32.6695 73.2929 32.7923 73.0899 32.8741C72.887 32.9559 72.6435 33.0378 72.4 33.0787C72.0754 33.2014 71.8319 33.2014 71.629 33.2014ZM71.629 26.7774V32.4649C71.8724 32.4649 72.0754 32.424 72.3189 32.3831C72.5624 32.3013 72.7653 32.2194 73.0088 32.0967C73.2117 31.9739 73.4146 31.8102 73.6175 31.6466C73.7798 31.4829 73.9422 31.2783 74.0639 31.0737C74.1857 30.8692 74.3074 30.6236 74.348 30.3781C74.4292 30.1326 74.4292 29.8871 74.4292 29.6416C74.4292 29.4371 74.4292 29.2734 74.3886 29.0688C74.348 28.9051 74.3074 28.7005 74.2263 28.5369C74.1451 28.3732 74.0639 28.2095 73.9422 28.0459C73.8204 27.8822 73.6987 27.7594 73.5769 27.5958C73.4552 27.473 73.2929 27.3503 73.1305 27.2275C72.9682 27.1048 72.8059 27.0229 72.6435 26.982C72.4812 26.9002 72.2783 26.8593 72.1159 26.8183C71.9942 26.8183 71.8319 26.7774 71.629 26.7774ZM70.8579 26.7774C70.6955 26.7774 70.4926 26.8183 70.3303 26.8183C70.1274 26.8593 69.965 26.9002 69.8027 26.982C69.6404 27.0638 69.4781 27.1457 69.3157 27.2275C69.1534 27.3503 69.0316 27.4321 68.8693 27.5958C68.7476 27.7185 68.6258 27.8822 68.5041 28.0459C68.3823 28.2095 68.3011 28.3732 68.22 28.5369C68.1388 28.7005 68.0982 28.9051 68.0576 29.0688C68.0171 29.2325 68.0171 29.4371 68.0171 29.6416C68.0171 29.8871 68.0576 30.1326 68.0982 30.3781C68.1794 30.6236 68.2606 30.8282 68.3823 31.0737C68.5041 31.2783 68.6664 31.4829 68.8287 31.6466C68.9911 31.8102 69.194 31.9739 69.4375 32.0967C69.6404 32.2194 69.8839 32.3013 70.1274 32.3831C70.3303 32.424 70.5738 32.4649 70.8173 32.4649V26.7774H70.8579ZM83.2763 29.6007C83.2763 29.9281 83.2357 30.2554 83.1545 30.5418C83.0734 30.8282 82.9516 31.1556 82.7893 31.4011C82.6269 31.6875 82.424 31.933 82.2211 32.1376C82.0182 32.3422 81.7341 32.5468 81.45 32.7104C81.166 32.8741 80.8819 32.9969 80.5572 33.0787C80.2731 33.1605 79.9485 33.2014 79.6238 33.2014C79.2991 33.2014 79.0151 33.1605 78.6904 33.0787C78.4063 32.9969 78.0817 32.8741 77.8382 32.7104C77.27 32.3831 76.8236 31.9739 76.4989 31.4011C76.3366 31.1147 76.2148 30.8282 76.1337 30.5418C76.0525 30.2554 76.0119 29.9281 76.0119 29.6007C76.0119 29.2734 76.0525 28.946 76.1337 28.6596C76.2148 28.3732 76.3366 28.0868 76.4989 27.8004C76.6612 27.5139 76.8642 27.2684 77.0671 27.0638C77.27 26.8593 77.5541 26.6547 77.8382 26.491C78.1222 26.3273 78.4063 26.2046 78.731 26.1227C79.0151 26.0409 79.3397 26 79.6644 26C79.9891 26 80.3137 26.0409 80.5978 26.1227C80.8819 26.2046 81.2065 26.3273 81.45 26.491C81.7341 26.6547 81.9776 26.8183 82.2211 27.0638C82.4646 27.2684 82.6269 27.5139 82.7893 27.8004C82.9516 28.0868 83.0734 28.3732 83.1545 28.6596C83.2357 28.987 83.2763 29.2734 83.2763 29.6007ZM76.7424 29.6416C76.7424 29.8871 76.783 30.1326 76.8236 30.3781C76.9047 30.6236 76.9859 30.8282 77.1077 31.0737C77.2294 31.2783 77.3917 31.4829 77.5541 31.6466C77.7164 31.8102 77.9193 31.9739 78.1628 32.0967C78.3657 32.2194 78.6092 32.3013 78.8527 32.3831C79.0962 32.4649 79.3397 32.4649 79.5832 32.4649C79.7861 32.4649 79.9485 32.4649 80.1514 32.424C80.3543 32.3831 80.5166 32.3422 80.679 32.2603C80.8413 32.1785 81.0036 32.0967 81.166 32.0148C81.3283 31.8921 81.45 31.8102 81.6124 31.6466C81.7341 31.5238 81.8559 31.3602 81.9776 31.2374C82.0994 31.0737 82.1805 30.9101 82.2617 30.7464C82.3429 30.5827 82.3835 30.3781 82.424 30.2145C82.4646 30.0099 82.4646 29.8462 82.4646 29.6416C82.4646 29.1506 82.3429 28.6596 82.0588 28.2504C81.937 28.0459 81.7747 27.8413 81.6124 27.6776C81.45 27.5139 81.2471 27.3503 81.0036 27.2275C80.8007 27.1048 80.5572 27.0229 80.3137 26.9411C80.0702 26.8593 79.8267 26.8593 79.5832 26.8593C79.3803 26.8593 79.218 26.8593 79.0151 26.9002C78.8121 26.9411 78.6498 26.982 78.4875 27.0638C78.3251 27.1457 78.1628 27.2275 78.0005 27.3094C77.8382 27.4321 77.7164 27.5139 77.5541 27.6776C77.4323 27.8004 77.3106 27.964 77.1888 28.1277C77.0671 28.2914 76.9859 28.455 76.9047 28.6187C76.8236 28.7824 76.783 28.987 76.7424 29.1506C76.783 29.2734 76.7424 29.4371 76.7424 29.6416ZM84.3314 26.1227H85.0213H85.0619V26.1637V29.1506H88.5115V26.1637V26.1227H88.5521H89.242H89.2826V26.1637V33.0378V33.0787H89.242H88.5521H88.5115V33.0378V29.8462H85.0619V33.0378V33.0787H85.0213H84.3314H84.2909V33.0378V26.1637V26.1227H84.3314ZM90.2566 32.3831L92.0016 26.1637V26.1227H92.0422H95.2889H95.3294V26.1637V32.3831H95.7353H95.7758V32.424V33.0378V33.0787H95.7353H89.9319H89.8913V33.0378V32.424V32.3831H89.9319H90.2566ZM94.5584 32.3831V26.8593H92.5698L91.0276 32.3831H94.5584ZM67.6112 37.3341H68.3011H68.3417V37.375V41.1803L71.426 37.3341H71.4666H72.3189H72.4L72.3594 37.4159L69.681 40.7302L72.0754 43.8808L74.8756 37.375V37.3341H74.9162H75.6873H75.7278V37.375L78.6498 44.2491L78.6904 44.3309H78.6092H77.8787H77.8382V44.29L76.8642 41.9986H73.7393L72.7653 44.29V44.3309H72.7247H72.4406H72.3594H71.9942H71.913H71.4666H71.426L69.194 41.3849L68.3417 42.4078V44.2491V44.29H68.3011H67.6112H67.5706V44.2491V37.375V37.3341H67.6112ZM72.1971 44.1673L72.0754 44.0036L71.9942 44.1673H72.1971ZM76.4989 41.2621L75.2408 38.2752L73.9828 41.2621H76.4989ZM79.3803 37.3341H84.2909H84.3314V37.375V44.2491V44.29H84.2909H83.6009H83.5604V44.2491V38.0297H80.1108V44.2491V44.29H80.0702H79.3803H79.3397V44.2491V37.375V37.3341H79.3803ZM90.9465 37.375V44.2491V44.29H90.9059H90.216H90.1754V44.2491V38.357L86.4012 44.29H86.3606H85.6707H85.6301V44.2491V37.375V37.3341H85.6707H86.3606H86.4012V37.375V42.9397L89.9319 37.375H89.9725H90.9059H90.9465ZM93.1785 38.0297H91.677H91.6364V37.9888V37.375V37.3341H91.677H95.4918H95.5323V37.375V37.9888V38.0297H95.4918H93.9902V44.2491V44.29H93.9496H93.2597H93.2191V44.2491V38.0297H93.1785ZM97.8862 37.3341L94.9236 44.2491L94.883 44.3309H94.9642H95.6947H95.7353V44.29L96.7093 41.9986H99.8341L100.808 44.29V44.3309H100.849H101.579H101.66L101.62 44.2491L98.6978 37.375V37.3341H98.6572H97.8862ZM99.5095 41.2621H96.9933L98.2514 38.2752L99.5095 41.2621ZM107.099 37.375V44.2491V44.29H107.058H106.368H106.327V44.2491V38.0297H104.258L102.553 44.2491V44.29H102.513H101.782H101.742V44.2491L103.69 37.375V37.3341H103.73H107.058H107.099V37.375ZM108.397 44.2082V37.3341V37.2932H108.438H109.128H109.168V37.3341V40.0755H110.426C110.629 40.0755 110.792 40.0755 110.954 40.1165C111.116 40.1165 111.279 40.1574 111.4 40.1983C111.563 40.2392 111.684 40.2801 111.806 40.321C111.928 40.362 112.05 40.4438 112.171 40.5665C112.415 40.7711 112.618 40.9757 112.78 41.2621C112.902 41.5486 112.983 41.835 112.983 42.2032C112.983 42.3669 112.983 42.5715 112.942 42.7352C112.902 42.8988 112.861 43.0625 112.78 43.2262C112.699 43.3898 112.618 43.5126 112.496 43.6353C112.374 43.7581 112.253 43.8808 112.09 43.9627C112.009 44.0036 111.928 44.0854 111.806 44.1263C111.725 44.1673 111.603 44.2082 111.522 44.2491C111.441 44.29 111.319 44.29 111.238 44.3309C111.157 44.3309 111.035 44.3719 110.954 44.3719C110.873 44.3719 110.751 44.3719 110.629 44.3719C110.507 44.3719 110.386 44.3719 110.264 44.3719H108.478H108.438V44.2082H108.397ZM110.305 40.812H109.168V43.5944H110.02H110.102H110.223H110.345H110.426C110.629 43.5944 110.792 43.5944 110.954 43.5535C111.116 43.5126 111.238 43.4717 111.36 43.4308C111.481 43.3898 111.603 43.308 111.684 43.2262C111.766 43.1443 111.887 43.0625 111.928 42.9397C112.009 42.817 112.05 42.6942 112.09 42.5715C112.131 42.4487 112.131 42.326 112.131 42.1623C112.131 42.0396 112.131 41.9577 112.09 41.835C112.05 41.7122 112.009 41.6304 111.968 41.5076C111.928 41.4258 111.847 41.3031 111.806 41.2212C111.725 41.1394 111.644 41.0576 111.563 41.0166C111.481 40.9757 111.4 40.8939 111.279 40.8939C111.197 40.853 111.076 40.812 110.994 40.812C110.873 40.812 110.751 40.7711 110.629 40.7711C110.589 40.812 110.426 40.812 110.305 40.812ZM113.916 37.3341H114.606H114.647V37.375V40.362H118.097V37.375V37.3341H118.137H118.827H118.868V37.375V44.2491V44.29H118.827H118.097H118.056V44.2491V41.0576H114.606V44.2491V44.29H114.566H113.876H113.835V44.2491V37.375V37.3341H113.916ZM127.147 40.7711C127.147 41.0985 127.106 41.4258 127.025 41.7122C126.944 41.9987 126.822 42.326 126.66 42.5715C126.497 42.8579 126.294 43.1034 126.091 43.308C125.888 43.5126 125.604 43.7172 125.32 43.8808C125.036 44.0445 124.752 44.1673 124.427 44.2491C124.143 44.3309 123.819 44.3719 123.494 44.3719C123.169 44.3719 122.885 44.3309 122.561 44.2491C122.277 44.1673 121.952 44.0445 121.708 43.8808C121.14 43.5535 120.694 43.1443 120.369 42.5715C120.207 42.2851 120.085 41.9987 120.004 41.7122C119.923 41.4258 119.882 41.0985 119.882 40.7711C119.882 40.4438 119.923 40.1165 120.004 39.83C120.085 39.5436 120.207 39.2572 120.369 38.9708C120.531 38.6844 120.734 38.4388 120.937 38.2343C121.14 38.0297 121.424 37.8251 121.708 37.6614C121.992 37.4978 122.277 37.375 122.601 37.2932C122.885 37.2113 123.21 37.1704 123.535 37.1704C123.859 37.1704 124.184 37.2113 124.468 37.2932C124.752 37.375 125.077 37.4978 125.32 37.6614C125.604 37.8251 125.848 37.9888 126.091 38.2343C126.335 38.4388 126.497 38.6844 126.66 38.9708C126.822 39.2572 126.944 39.5436 127.025 39.83C127.106 40.1574 127.147 40.4438 127.147 40.7711ZM120.613 40.812C120.613 41.0576 120.653 41.3031 120.694 41.5486C120.775 41.7941 120.856 41.9986 120.978 42.2442C121.1 42.4487 121.262 42.6533 121.424 42.817C121.587 42.9807 121.79 43.1443 122.033 43.2671C122.236 43.3898 122.479 43.4717 122.723 43.5535C122.966 43.6353 123.21 43.6353 123.453 43.6353C123.656 43.6353 123.819 43.6353 124.022 43.5944C124.225 43.5535 124.387 43.5126 124.549 43.4308C124.712 43.3489 124.874 43.2671 125.036 43.1852C125.199 43.0625 125.32 42.9807 125.483 42.817C125.604 42.6942 125.726 42.5306 125.848 42.4078C125.97 42.2442 126.051 42.0805 126.132 41.9168C126.213 41.7531 126.254 41.5486 126.294 41.3849C126.335 41.1803 126.335 41.0166 126.335 40.812C126.335 40.321 126.213 39.83 125.929 39.4209C125.807 39.2163 125.645 39.0117 125.483 38.848C125.32 38.6844 125.117 38.5207 124.874 38.3979C124.671 38.2752 124.427 38.1933 124.184 38.1115C123.94 38.0297 123.697 38.0297 123.453 38.0297C123.251 38.0297 123.088 38.0297 122.885 38.0706C122.682 38.1115 122.52 38.1524 122.358 38.2343C122.195 38.3161 122.033 38.3979 121.871 38.4798C121.708 38.6025 121.587 38.6844 121.424 38.848C121.303 38.9708 121.181 39.1344 121.059 39.2981C120.937 39.4618 120.856 39.6254 120.775 39.7891C120.694 39.9528 120.653 40.1574 120.613 40.321C120.653 40.4438 120.613 40.6484 120.613 40.812ZM128.202 37.3341H131.651H131.692V37.375V37.9888V38.0297H131.651H128.932V44.2491V44.29H128.892H128.202H128.161V44.2491V37.375V37.3341H128.202ZM138.713 40.7711C138.713 40.4438 138.672 40.1165 138.591 39.83C138.51 39.5436 138.388 39.2572 138.226 38.9708C138.063 38.6844 137.86 38.4388 137.658 38.2343C137.414 38.0297 137.171 37.8251 136.886 37.6614C136.602 37.4978 136.318 37.375 136.034 37.2932C135.75 37.2113 135.425 37.1704 135.101 37.1704C134.776 37.1704 134.451 37.2113 134.167 37.2932C133.883 37.375 133.559 37.4978 133.275 37.6614C132.99 37.8251 132.747 38.0297 132.503 38.2343C132.301 38.4388 132.098 38.6844 131.935 38.9708C131.773 39.2572 131.651 39.5436 131.57 39.83C131.489 40.1165 131.448 40.4438 131.448 40.7711C131.448 41.0985 131.489 41.3849 131.57 41.7122C131.651 41.9987 131.773 42.2851 131.935 42.5715C132.26 43.1034 132.706 43.5535 133.275 43.8808C133.559 44.0445 133.843 44.1673 134.127 44.2491C134.411 44.3309 134.736 44.3719 135.06 44.3719C135.385 44.3719 135.71 44.3309 135.994 44.2491C136.278 44.1673 136.602 44.0445 136.886 43.8808C137.171 43.7172 137.414 43.5126 137.658 43.308C137.86 43.1034 138.063 42.8579 138.226 42.5715C138.388 42.2851 138.51 41.9987 138.591 41.7122C138.672 41.4258 138.713 41.0985 138.713 40.7711ZM132.179 40.812C132.179 40.6075 132.179 40.4438 132.219 40.2392C132.26 40.0755 132.301 39.871 132.382 39.7073C132.463 39.5436 132.544 39.3799 132.666 39.2163C132.788 39.0526 132.909 38.9299 133.031 38.7662C133.153 38.6434 133.315 38.5207 133.477 38.3979C133.64 38.2752 133.802 38.1933 133.964 38.1524C134.127 38.0706 134.33 38.0297 134.492 37.9888C134.695 37.9478 134.857 37.9478 135.06 37.9478C135.304 37.9478 135.547 37.9888 135.791 38.0297C136.034 38.1115 136.237 38.1933 136.481 38.3161C136.684 38.4388 136.886 38.6025 137.089 38.7662C137.252 38.9299 137.414 39.1344 137.536 39.339C137.779 39.7891 137.942 40.2392 137.942 40.7302C137.942 40.9348 137.942 41.0985 137.901 41.3031C137.86 41.5076 137.82 41.6713 137.739 41.835C137.658 41.9986 137.576 42.1623 137.455 42.326C137.333 42.4897 137.252 42.6124 137.089 42.7352C136.968 42.8579 136.805 42.9807 136.643 43.1034C136.481 43.2262 136.318 43.308 136.156 43.3489C135.994 43.4308 135.791 43.4717 135.628 43.5126C135.425 43.5535 135.263 43.5535 135.06 43.5535C134.817 43.5535 134.573 43.5126 134.33 43.4717C134.086 43.3898 133.883 43.308 133.64 43.1852C133.437 43.0625 133.234 42.8988 133.031 42.7352C132.869 42.5715 132.706 42.3669 132.585 42.1623C132.463 41.9577 132.341 41.7122 132.301 41.4667C132.219 41.344 132.179 41.0985 132.179 40.812ZM67.6112 48.5045H69.3969C69.5186 48.5045 69.6404 48.5045 69.7621 48.5045C69.8839 48.5045 70.0056 48.5045 70.0868 48.5045C70.168 48.5045 70.2897 48.5045 70.3709 48.5454C70.452 48.5454 70.5738 48.5863 70.655 48.6272C70.7361 48.6682 70.8579 48.7091 70.939 48.75C71.0202 48.7909 71.142 48.8318 71.2231 48.9137C71.3855 48.9955 71.5072 49.1183 71.629 49.241C71.7507 49.3638 71.8319 49.4865 71.913 49.6502C71.9942 49.8138 72.0348 49.9775 72.0754 50.1412C72.1159 50.3049 72.1159 50.4685 72.1159 50.6731C72.1159 51.3687 71.8319 51.9006 71.3043 52.3098C71.1825 52.3916 71.0608 52.4735 70.939 52.5553C70.8173 52.5962 70.655 52.6781 70.5332 52.6781C70.4115 52.719 70.2491 52.719 70.0868 52.7599C69.9245 52.7599 69.7621 52.8008 69.5592 52.8008H68.3011V55.5423V55.5832H68.2606H67.5706H67.5301V55.5423V48.6682V48.6272H67.6112V48.5045ZM69.478 51.9825C69.6404 51.9825 69.7621 51.9825 69.8839 51.9825C70.0056 51.9825 70.1274 51.9415 70.2491 51.9415C70.3709 51.9415 70.452 51.9006 70.5332 51.8597C70.6144 51.8188 70.7361 51.7779 70.8173 51.737C70.8985 51.696 70.9796 51.6142 71.0608 51.5324C71.142 51.4505 71.1825 51.3687 71.2231 51.246C71.2637 51.1641 71.3043 51.0414 71.3449 50.9186C71.3855 50.7959 71.3855 50.714 71.3855 50.5913C71.3855 50.4685 71.3855 50.3049 71.3449 50.1821C71.3043 50.0593 71.2637 49.9366 71.1825 49.8138C71.1014 49.6911 71.0202 49.6093 70.939 49.5274C70.8579 49.4456 70.7361 49.3638 70.5738 49.3228C70.452 49.2819 70.3303 49.241 70.168 49.2001C70.0056 49.1592 69.8433 49.1592 69.6404 49.1592H69.5592H69.4375H69.3157H69.2346H68.3823V51.9415H69.478V51.9825ZM73.0494 48.5045H76.783H76.8236V48.5454V49.1592V49.2001H76.783H73.7799V51.5733H76.6612H76.7018V51.6142V52.228V52.2689H73.8204V54.7239H76.8236H76.8642V54.7648V55.3786V55.4195H76.8236H73.0494H73.0088V55.3786V48.5045V48.4636H73.0494V48.5045ZM78.0005 48.5045H79.0556H79.0962V48.5454L81.5312 54.3147L83.9662 48.5454V48.5045H84.0068H85.0619H85.1025V48.5454V55.4195V55.4604H85.0619H84.4126H84.372V55.4195V49.5274L81.8965 55.4195V55.4604H81.8559H81.2877H81.2471V55.4195L78.7716 49.5274V55.4195V55.4604H78.731H78.0411H78.0005V55.4195V48.5454V48.5045ZM93.422 51.9415C93.422 52.2689 93.3814 52.5962 93.3003 52.8826C93.2191 53.1691 93.0974 53.4964 92.935 53.7419C92.7727 54.0283 92.5698 54.2738 92.3669 54.4784C92.164 54.683 91.8799 54.8876 91.5958 55.0513C91.3117 55.2149 91.0276 55.3377 90.703 55.4195C90.4189 55.5013 90.0942 55.5423 89.7696 55.5423C89.4449 55.5423 89.1608 55.5013 88.8361 55.4195C88.5521 55.3377 88.2274 55.2149 87.9839 55.0513C87.4157 54.7239 86.9693 54.3147 86.6447 53.7419C86.4823 53.4555 86.3606 53.1691 86.2794 52.8826C86.1983 52.5962 86.1577 52.2689 86.1577 51.9415C86.1577 51.6142 86.1983 51.2869 86.2794 51.0004C86.3606 50.714 86.4823 50.4276 86.6447 50.1412C86.807 49.8548 87.0099 49.6093 87.2128 49.4047C87.4157 49.2001 87.6998 48.9955 87.9839 48.8318C88.268 48.6682 88.5521 48.5454 88.8767 48.4636C89.1608 48.3817 89.4855 48.3408 89.8101 48.3408C90.1348 48.3408 90.4595 48.3817 90.7436 48.4636C91.0276 48.5454 91.3523 48.6682 91.5958 48.8318C91.8799 48.9955 92.1234 49.1592 92.3669 49.4047C92.6104 49.6093 92.7727 49.8548 92.935 50.1412C93.0974 50.4276 93.2191 50.714 93.3003 51.0004C93.3814 51.3278 93.422 51.6142 93.422 51.9415ZM86.9287 51.9825C86.9287 52.228 86.9693 52.4735 87.0099 52.719C87.0911 52.9645 87.1723 53.1691 87.294 53.4146C87.4157 53.6191 87.5781 53.8237 87.7404 53.9874C87.9027 54.1511 88.1057 54.3147 88.3492 54.4375C88.5521 54.5602 88.7956 54.6421 89.0391 54.7239C89.2826 54.8058 89.5261 54.8058 89.7696 54.8058C89.9725 54.8058 90.1348 54.8058 90.3377 54.7648C90.5406 54.7239 90.703 54.683 90.8653 54.6012C91.0276 54.5193 91.19 54.4375 91.3523 54.3557C91.5146 54.2329 91.6364 54.1511 91.7987 53.9874C91.9205 53.8647 92.0422 53.701 92.164 53.5782C92.2857 53.4146 92.3669 53.2509 92.448 53.0872C92.5292 52.9236 92.5698 52.719 92.6104 52.5553C92.651 52.3507 92.651 52.187 92.651 51.9825C92.651 51.4915 92.5292 51.0004 92.2451 50.5913C92.1234 50.3867 91.961 50.1821 91.7987 50.0184C91.6364 49.8548 91.4335 49.6911 91.19 49.5683C90.9871 49.4456 90.7436 49.3638 90.5001 49.2819C90.2566 49.2001 90.0131 49.2001 89.7696 49.2001C89.5666 49.2001 89.4043 49.2001 89.2014 49.241C88.9985 49.2819 88.8362 49.3228 88.6738 49.4047C88.5115 49.4865 88.3492 49.5683 88.1868 49.6502C88.0245 49.7729 87.9027 49.8548 87.7404 50.0184C87.6187 50.1412 87.4969 50.3049 87.3752 50.4685C87.2534 50.6322 87.1723 50.7959 87.0911 50.9595C87.0099 51.1232 86.9693 51.3278 86.9287 51.4915C86.9287 51.6142 86.9287 51.8188 86.9287 51.9825ZM94.4772 48.5045H95.1671H95.2077V48.5454V51.5324H98.6572V48.5454V48.5045H98.6978H99.3877H99.4283V48.5454V55.4195V55.4604H99.3877H98.6978H98.6572V55.4195V52.228H95.2077V55.4195V55.4604H95.1671H94.4772H94.4366V55.4195V48.5454V48.5045H94.4772ZM101.66 49.2001H100.159H100.118V49.1592V48.5454V48.5045H100.159H103.974H104.014V48.5454V49.1592V49.2001H103.974H102.472V55.4195V55.4604H102.431H101.742H101.701V55.4195V49.2001H101.66ZM106.368 48.5045L103.405 55.4195L103.365 55.5013H103.446H104.177H104.217V55.4604L105.191 53.1691H108.316L109.29 55.4604V55.5013H109.331H110.061H110.142L110.102 55.4195L107.18 48.5454V48.5045H107.139H106.368ZM107.991 52.4326H105.475L106.733 49.4456L107.991 52.4326Z" fill="#0C2070"/>
<path fill-rule="evenodd" clip-rule="evenodd" d="M-3 86.7086H17.2395V74.4935V62.2785V37.8484L21.5121 36.5391V86.7086H1069V90.9999H21.5121H17.2395H-3V86.7086Z" fill="#FF610A"/>
</g>
<defs>
<clipPath id="clip0">
<rect width="142" height="91" fill="white"/>
</clipPath>
</defs>
</svg>
