<svg width="25" height="37" viewBox="0 0 25 37" fill="none" xmlns="http://www.w3.org/2000/svg">
<path fill-rule="evenodd" clip-rule="evenodd" d="M16.0499 6.32322L16.0663 34.4648H18.5488L18.5324 4.41308C16.1806 3.16161 12.2282 1.0374 10.2847 0L10.35 9.40249L16.0499 6.32322ZM20.0513 34.4813L23.4811 34.3495L23.5137 14.2602L20.0513 12.3994V34.4813Z" fill="#0C2070"/>
<path fill-rule="evenodd" clip-rule="evenodd" d="M1.25315 34.4811L4.66658 34.3658L4.60125 19.3976L1.23682 21.176L1.25315 34.4811ZM6.15281 34.4646L14.4169 34.4152L14.3516 9.04004L6.15281 13.7166V34.4646ZM13.388 30.3315V32.1428L12.2937 32.785V30.9737L13.388 30.3315ZM13.388 27.7133V29.5246L12.2937 30.1668V28.3555L13.388 27.7133ZM11.3954 26.1819V27.9932L10.3012 28.6354V26.8241L11.3954 26.1819ZM11.3954 23.646V25.4573L10.3012 26.0995V24.2882L11.3954 23.646ZM13.388 25.128V26.9393L12.2937 27.5815V25.7702L13.388 25.128ZM13.388 22.5098V24.3211L12.2937 24.9633V23.152L13.388 22.5098ZM11.3954 21.0772V22.8885L10.3012 23.5307V21.7194L11.3954 21.0772ZM13.388 19.941V21.7523L12.2937 22.3945V20.5832L13.388 19.941ZM11.3954 18.5413V20.3527L10.3012 20.9949V19.1835L11.3954 18.5413ZM13.388 17.3887V19.2L12.2937 19.8422V18.0309L13.388 17.3887ZM11.3954 15.9396V17.7509L10.3012 18.3931V16.5818L11.3954 15.9396ZM13.388 14.7869V16.5983L12.2937 17.2405V15.4291L13.388 14.7869ZM11.3954 13.3543V15.1657L10.3012 15.8079V13.9965L11.3954 13.3543ZM13.388 12.2016V14.013L12.2774 14.6552V12.8438L13.388 12.2016Z" fill="#4FAFBE"/>
<path fill-rule="evenodd" clip-rule="evenodd" d="M0 34.4919H8.14516V29.5761V24.6603V14.8287L9.86464 14.3018V34.4919H25V36.2189H9.86464H8.14516H0V34.4919Z" fill="#FF610A"/>
</svg>
