<svg width="22" height="17" viewBox="0 0 22 17" fill="none" xmlns="http://www.w3.org/2000/svg">
<path fill-rule="evenodd" clip-rule="evenodd" d="M0 15.0716C1.9976 16.2902 4.3692 17 6.919 17C15.2218 17 19.7615 10.4592 19.7615 4.78762C19.7615 4.60169 19.7571 4.41788 19.7483 4.23406C20.6305 3.62844 21.3961 2.873 22 2.01237C21.1915 2.3545 20.3214 2.584 19.4084 2.686C20.3401 2.15794 21.054 1.31431 21.3928 0.313438C20.5205 0.804312 19.5536 1.16131 18.5262 1.35363C17.7034 0.520625 16.5297 0 15.2317 0C12.7391 0 10.7173 1.91994 10.7173 4.28931C10.7173 4.62719 10.758 4.95338 10.835 5.26788C7.084 5.08938 3.7565 3.38087 1.5323 0.784125C1.144 1.4195 0.9207 2.15475 0.9207 2.94206C0.9207 4.43062 1.7171 5.74494 2.9282 6.51419C2.1879 6.494 1.4927 6.29956 0.8833 5.97762C0.8833 5.99569 0.8833 6.01375 0.8833 6.03181C0.8833 8.11006 2.4409 9.84619 4.5034 10.2404C4.1261 10.3392 3.7268 10.3902 3.3154 10.3902C3.0239 10.3902 2.7412 10.3647 2.4662 10.3137C3.0393 12.0201 4.7069 13.2611 6.6814 13.294C5.137 14.4457 3.1933 15.13 1.0769 15.13C0.7128 15.13 0.3542 15.113 0 15.0716Z" fill="#828282"/>
</svg>
