<svg width="25" height="14" viewBox="0 0 25 14" fill="none" xmlns="http://www.w3.org/2000/svg">
<path fill-rule="evenodd" clip-rule="evenodd" d="M12.2318 13.3365H13.7263C13.7263 13.3365 14.1773 13.2901 14.4077 13.0572C14.6205 12.8425 14.6134 12.4405 14.6134 12.4405C14.6134 12.4405 14.5843 10.558 15.5147 10.2803C16.4318 10.0067 17.6103 12.0998 18.8585 12.9047C19.803 13.5139 20.5206 13.3805 20.5206 13.3805L23.8591 13.3365C23.8591 13.3365 25.6052 13.2354 24.7772 11.9464C24.7092 11.8411 24.2943 10.9923 22.2949 9.24906C20.2011 7.42458 20.4818 7.71968 23.0038 4.5631C24.5388 2.64163 25.1532 1.46786 24.9608 0.965524C24.778 0.4864 23.649 0.613227 23.649 0.613227L19.8895 0.634779C19.8895 0.634779 19.6105 0.599135 19.404 0.715186C19.2027 0.82875 19.073 1.09401 19.073 1.09401C19.073 1.09401 18.4771 2.58112 17.6844 3.84607C16.0108 6.51524 15.3408 6.65616 15.0671 6.49037C14.4307 6.10409 14.5896 4.93943 14.5896 4.11133C14.5896 1.52423 15.008 0.445782 13.7766 0.166431C13.3679 0.0744194 13.0669 0.0130783 12.0217 0.0031311C10.6808 -0.0101318 9.54566 0.00644685 8.90303 0.302376C8.47491 0.498834 8.14477 0.93734 8.34603 0.962208C8.59408 0.993708 9.15726 1.10478 9.45562 1.48609C9.84049 1.97848 9.82725 3.08345 9.82725 3.08345C9.82725 3.08345 10.0488 6.12813 9.30997 6.50695C8.80328 6.76558 8.10857 6.23672 6.61588 3.81457C5.85143 2.57449 5.27413 1.20343 5.27413 1.20343C5.27413 1.20343 5.1629 0.947287 4.96429 0.809684C4.7233 0.643897 4.38698 0.590845 4.38698 0.590845L0.814576 0.613227C0.814576 0.613227 0.278759 0.627319 0.0819103 0.846157C-0.0937529 1.04096 0.0677866 1.44382 0.0677866 1.44382C0.0677866 1.44382 2.86427 7.58788 6.03063 10.6839C8.93481 13.523 12.2318 13.3365 12.2318 13.3365Z" fill="#828282"/>
</svg>
